<?xml version="1.0" encoding="utf-8"?>
<!-- Generator: Adobe Illustrator 23.1.0, SVG Export Plug-In . SVG Version: 6.00 Build 0)  -->
<svg version="1.1" id="图层_1" xmlns="http://www.w3.org/2000/svg" xmlns:xlink="http://www.w3.org/1999/xlink" x="0px" y="0px"
	 viewBox="0 0 16 16" style="enable-background:new 0 0 16 16;" xml:space="preserve">
<style type="text/css">
	.st0{fill-rule:evenodd;clip-rule:evenodd;fill:#13AE67;fill-opacity:0.7;}
	.st1{fill-rule:evenodd;clip-rule:evenodd;fill:#9AA7B0;fill-opacity:0.8;}
	.st2{fill:#DBF3E8;}
</style>
<polygon class="st0" points="1,16 16,16 16,9 1,9 "/>
<polygon class="st1" points="7,1 3,5 7,5 "/>
<polygon class="st1" points="8,1 8,6 3,6 3,8 13,8 13,1 "/>
<g>
	<path class="st2" d="M2.6,15.1V9.9h3.1v0.8H3.6V12h2v0.8h-2v1.4h2.1v0.8H2.6z"/>
	<path class="st2" d="M8.9,15.1l-1.4-3l-0.3-0.7v2.1v1.6H6.4V9.9h1.2L9,13l0.2,0.6v-2.3V9.9h0.9v5.1H8.9z"/>
	<path class="st2" d="M13.7,15.1h-1.3l-1.6-5.1h1.1l0.9,3.1l0.3,1l0.3-1.1l0.9-3h1L13.7,15.1z"/>
</g>
</svg>
