<?xml version="1.0" encoding="utf-8"?>
<!-- Generator: Adobe Illustrator 23.1.0, SVG Export Plug-In . SVG Version: 6.00 Build 0)  -->
<svg version="1.1" id="图层_1" xmlns="http://www.w3.org/2000/svg" xmlns:xlink="http://www.w3.org/1999/xlink" x="0px" y="0px"
	 viewBox="0 0 16 16" style="enable-background:new 0 0 16 16;" xml:space="preserve">
<style type="text/css">
	.st0{fill:#13AE67;}
</style>
<path class="st0" d="M2.3,14.3c0,0,1.3-1.9,2.3-1.9s4.6-0.8,5.3-0.8c0,0,5-1.1,4.7-6.6c-0.2-4-0.2-4.1-0.2-3.8
	c0-0.3-0.3-0.8-1.5-0.2c0,0-4.2,1.4-6.4,2s-4.3,1.8-4.7,8.8l-0.4,3.3C1.4,15.1,1.7,15.2,2.3,14.3L2.3,14.3z M1.8,13.3
	c0.9-5.6,8.1-7.7,8.1-7.7L9.8,5.7C9.9,5.6,10,5.6,10,5.6L9,6.1c-6.8,2.5-7.2,8.7-7.2,8.7l0.1-1.2c-0.2,0.8-0.2,1.2-0.2,1.2L1.8,13.3
	L1.8,13.3z"/>
</svg>
