<?xml version="1.0" encoding="utf-8"?>
<!-- Generator: Adobe Illustrator 23.1.0, SVG Export Plug-In . SVG Version: 6.00 Build 0)  -->
<svg version="1.1" xmlns="http://www.w3.org/2000/svg" xmlns:xlink="http://www.w3.org/1999/xlink" x="0px" y="0px"
	 viewBox="0 0 16 16" style="enable-background:new 0 0 16 16;" xml:space="preserve">
<style type="text/css">
	.st0{fill:#E8E8E8;}
	.st1{fill:#B2B2B2;}
	.st2{fill:#0D47A1;}
	.st3{display:none;fill:#FFFFFF;}
	.st4{fill:#FFFFFF;}
</style>
<g id="图层_1">
	<path id="bg" class="st0" d="M14.58,12.8H8.46c-0.24,0-0.42-0.2-0.42-0.42V3.65c0-0.24,0.2-0.42,0.42-0.42h6.11
		c0.24,0,0.42,0.2,0.42,0.42v8.71C15,12.61,14.8,12.8,14.58,12.8L14.58,12.8z"/>
	<path id="word" class="st1" d="M12.82,5.83H8.46c-0.24,0-0.42-0.2-0.42-0.42c0-0.24,0.2-0.42,0.42-0.42h4.36
		c0.24,0,0.42,0.2,0.42,0.42C13.25,5.62,13.06,5.83,12.82,5.83z M12.82,7.58H8.46c-0.24,0-0.42-0.2-0.42-0.42
		c0-0.23,0.2-0.42,0.42-0.42h4.36c0.24,0,0.42,0.2,0.42,0.42C13.25,7.39,13.06,7.58,12.82,7.58z M12.82,9.31H8.46
		c-0.24,0-0.42-0.2-0.42-0.42c0-0.24,0.2-0.42,0.42-0.42h4.36c0.24,0,0.42,0.2,0.42,0.42C13.25,9.12,13.06,9.31,12.82,9.31z
		 M12.82,11.05H8.46c-0.24,0-0.42-0.2-0.42-0.42c0-0.24,0.2-0.42,0.42-0.42h4.36c0.24,0,0.42,0.2,0.42,0.42
		C13.25,10.87,13.06,11.05,12.82,11.05z"/>
	<path id="blue" class="st2" d="M9.01,14.99L1,13.44V2.56L9.01,1V14.99z"/>
	<path id="W_1_" class="st3" d="M6.83,10.67H5.79L5.11,7.26c-0.04-0.2-0.07-0.4-0.07-0.6H5.04C5.03,6.9,4.99,7.1,4.96,7.26
		l-0.71,3.42H3.16L2.09,5.34h1.02L3.69,8.9c0.03,0.15,0.04,0.36,0.05,0.61h0.01c0-0.2,0.04-0.4,0.09-0.62l0.74-3.54h0.99l0.69,3.58
		C6.29,9.06,6.3,9.26,6.31,9.51h0.01c0.01-0.2,0.03-0.38,0.05-0.59l0.6-3.57h0.94L6.83,10.67z"/>
	<g id="D">
		<path class="st4" d="M7.33,8.04c0,1.15-0.28,1.97-0.85,2.46s-1.34,0.73-2.3,0.73H2.68V4.81h1.49c1.08,0,1.88,0.25,2.39,0.75
			S7.33,6.88,7.33,8.04z M6.28,8.04c0-0.93-0.18-1.58-0.53-1.95C5.4,5.71,4.87,5.52,4.17,5.52H3.69v5h0.48
			c0.7,0,1.23-0.18,1.58-0.54C6.1,9.61,6.28,8.96,6.28,8.04z"/>
	</g>
</g>
<g id="图层_2">
</g>
</svg>
